<mxfile host="app.diagrams.net" modified="2024-05-21T01:05:00.607Z" agent="Mozilla/5.0 (Macintosh; Intel Mac OS X 10_15_7) AppleWebKit/537.36 (KHTML, like Gecko) Chrome/124.0.0.0 Safari/537.36" etag="-kiYSVaEEhMTVzOkk33x" version="24.4.0" type="github">
  <diagram name="overview" id="2FM4Q_POhj0eXSHo59eQ">
    <mxGraphModel dx="2901" dy="1146" grid="1" gridSize="10" guides="1" tooltips="1" connect="1" arrows="1" fold="1" page="1" pageScale="1" pageWidth="827" pageHeight="1169" math="0" shadow="0">
      <root>
        <mxCell id="0" />
        <mxCell id="1" parent="0" />
        <mxCell id="uqjpLZ4vGiqpJtfUBh_o-17" value="" style="rounded=0;whiteSpace=wrap;html=1;fillColor=none;strokeWidth=2;dashed=1;strokeColor=#616161;glass=0;" vertex="1" parent="1">
          <mxGeometry x="262" y="314" width="680" height="350" as="geometry" />
        </mxCell>
        <mxCell id="uqjpLZ4vGiqpJtfUBh_o-7" value="" style="group" vertex="1" connectable="0" parent="1">
          <mxGeometry x="-121" y="392" width="140" height="133" as="geometry" />
        </mxCell>
        <mxCell id="uqjpLZ4vGiqpJtfUBh_o-5" value="" style="sketch=0;outlineConnect=0;fontColor=#232F3E;gradientColor=none;fillColor=#232F3D;strokeColor=none;dashed=0;verticalLabelPosition=bottom;verticalAlign=top;align=center;html=1;fontSize=12;fontStyle=0;aspect=fixed;pointerEvents=1;shape=mxgraph.aws4.external_toolkit;" vertex="1" parent="uqjpLZ4vGiqpJtfUBh_o-7">
          <mxGeometry x="25" width="85.44" height="98" as="geometry" />
        </mxCell>
        <mxCell id="uqjpLZ4vGiqpJtfUBh_o-6" value="&lt;font face=&quot;Times New Roman&quot; style=&quot;font-size: 18px;&quot;&gt;&lt;b&gt;DL/ML Engine&lt;/b&gt;&lt;/font&gt;" style="text;html=1;align=center;verticalAlign=middle;resizable=0;points=[];autosize=1;strokeColor=none;fillColor=none;" vertex="1" parent="uqjpLZ4vGiqpJtfUBh_o-7">
          <mxGeometry y="93" width="140" height="40" as="geometry" />
        </mxCell>
        <mxCell id="uqjpLZ4vGiqpJtfUBh_o-52" value="" style="verticalLabelPosition=bottom;verticalAlign=top;html=1;shape=mxgraph.basic.tick;fillColor=#CC0000;strokeColor=none;shadow=0;rotation=0;" vertex="1" parent="uqjpLZ4vGiqpJtfUBh_o-7">
          <mxGeometry x="-14" y="-22" width="65" height="64" as="geometry" />
        </mxCell>
        <mxCell id="uqjpLZ4vGiqpJtfUBh_o-8" value="" style="group" vertex="1" connectable="0" parent="1">
          <mxGeometry x="25" y="223" width="170" height="133" as="geometry" />
        </mxCell>
        <mxCell id="uqjpLZ4vGiqpJtfUBh_o-1" value="" style="sketch=0;outlineConnect=0;fontColor=#333333;fillColor=#000000;strokeColor=#666666;dashed=0;verticalLabelPosition=bottom;verticalAlign=top;align=center;html=1;fontSize=12;fontStyle=0;aspect=fixed;pointerEvents=1;shape=mxgraph.aws4.file_system;" vertex="1" parent="uqjpLZ4vGiqpJtfUBh_o-8">
          <mxGeometry x="25" width="99.37" height="93" as="geometry" />
        </mxCell>
        <mxCell id="uqjpLZ4vGiqpJtfUBh_o-2" value="&lt;b&gt;&lt;font style=&quot;font-size: 18px;&quot; face=&quot;Times New Roman&quot;&gt;Model Checkpoints&lt;/font&gt;&lt;/b&gt;" style="text;html=1;align=center;verticalAlign=middle;resizable=0;points=[];autosize=1;strokeColor=none;fillColor=none;" vertex="1" parent="uqjpLZ4vGiqpJtfUBh_o-8">
          <mxGeometry y="93" width="170" height="40" as="geometry" />
        </mxCell>
        <mxCell id="uqjpLZ4vGiqpJtfUBh_o-9" value="" style="shape=image;html=1;verticalAlign=top;verticalLabelPosition=bottom;labelBackgroundColor=#ffffff;imageAspect=0;aspect=fixed;image=https://cdn4.iconfinder.com/data/icons/evil-icons-user-interface/64/plus-128.png" vertex="1" parent="1">
          <mxGeometry x="70" y="416.5" width="60" height="60" as="geometry" />
        </mxCell>
        <mxCell id="uqjpLZ4vGiqpJtfUBh_o-10" value="" style="endArrow=classic;html=1;rounded=0;strokeWidth=2;" edge="1" parent="1">
          <mxGeometry width="50" height="50" relative="1" as="geometry">
            <mxPoint x="99.63" y="363" as="sourcePoint" />
            <mxPoint x="99.63" y="413" as="targetPoint" />
          </mxGeometry>
        </mxCell>
        <mxCell id="uqjpLZ4vGiqpJtfUBh_o-11" value="" style="endArrow=classic;html=1;rounded=0;strokeWidth=2;" edge="1" parent="1">
          <mxGeometry width="50" height="50" relative="1" as="geometry">
            <mxPoint x="10" y="446" as="sourcePoint" />
            <mxPoint x="69.63" y="446.13" as="targetPoint" />
          </mxGeometry>
        </mxCell>
        <mxCell id="uqjpLZ4vGiqpJtfUBh_o-12" value="" style="endArrow=classic;html=1;rounded=0;strokeWidth=2;" edge="1" parent="1">
          <mxGeometry width="50" height="50" relative="1" as="geometry">
            <mxPoint x="99.47" y="480" as="sourcePoint" />
            <mxPoint x="99.47" y="530" as="targetPoint" />
          </mxGeometry>
        </mxCell>
        <mxCell id="uqjpLZ4vGiqpJtfUBh_o-14" value="" style="group" vertex="1" connectable="0" parent="1">
          <mxGeometry x="45" y="531" width="130" height="140" as="geometry" />
        </mxCell>
        <mxCell id="uqjpLZ4vGiqpJtfUBh_o-3" value="" style="shape=image;html=1;verticalAlign=top;verticalLabelPosition=bottom;labelBackgroundColor=#ffffff;imageAspect=0;aspect=fixed;image=https://cdn0.iconfinder.com/data/icons/social-media-2104/24/social_media_social_media_logo_docker-128.png;textShadow=1;fontColor=#616161;" vertex="1" parent="uqjpLZ4vGiqpJtfUBh_o-14">
          <mxGeometry x="5" width="110" height="110" as="geometry" />
        </mxCell>
        <mxCell id="uqjpLZ4vGiqpJtfUBh_o-13" value="&lt;b&gt;&lt;font face=&quot;Times New Roman&quot; style=&quot;font-size: 18px;&quot;&gt;Docker Image&lt;/font&gt;&lt;/b&gt;" style="text;html=1;align=center;verticalAlign=middle;resizable=0;points=[];autosize=1;strokeColor=none;fillColor=none;" vertex="1" parent="uqjpLZ4vGiqpJtfUBh_o-14">
          <mxGeometry y="100" width="130" height="40" as="geometry" />
        </mxCell>
        <mxCell id="uqjpLZ4vGiqpJtfUBh_o-16" value="" style="aspect=fixed;sketch=0;html=1;dashed=0;whitespace=wrap;verticalLabelPosition=bottom;verticalAlign=top;fillColor=#616161;strokeColor=#ffffff;points=[[0.005,0.63,0],[0.1,0.2,0],[0.9,0.2,0],[0.5,0,0],[0.995,0.63,0],[0.72,0.99,0],[0.5,1,0],[0.28,0.99,0]];shape=mxgraph.kubernetes.icon2;prIcon=crd" vertex="1" parent="1">
          <mxGeometry x="322" y="494" width="130.21" height="125" as="geometry" />
        </mxCell>
        <mxCell id="uqjpLZ4vGiqpJtfUBh_o-30" value="" style="curved=1;endArrow=classic;html=1;rounded=0;strokeWidth=2;strokeColor=#616161;fontColor=#616161;" edge="1" parent="1">
          <mxGeometry width="50" height="50" relative="1" as="geometry">
            <mxPoint x="462" y="574" as="sourcePoint" />
            <mxPoint x="622" y="534" as="targetPoint" />
            <Array as="points">
              <mxPoint x="512" y="614" />
            </Array>
          </mxGeometry>
        </mxCell>
        <mxCell id="uqjpLZ4vGiqpJtfUBh_o-31" value="&lt;b&gt;&lt;font color=&quot;#616161&quot; style=&quot;font-size: 18px;&quot; face=&quot;Times New Roman&quot;&gt;Seldon Core CRD&lt;/font&gt;&lt;/b&gt;" style="text;html=1;align=center;verticalAlign=middle;resizable=0;points=[];autosize=1;strokeColor=none;fillColor=none;" vertex="1" parent="1">
          <mxGeometry x="307.1" y="607.5" width="160" height="40" as="geometry" />
        </mxCell>
        <mxCell id="uqjpLZ4vGiqpJtfUBh_o-32" value="" style="endArrow=classic;html=1;rounded=0;strokeWidth=2;" edge="1" parent="1">
          <mxGeometry width="50" height="50" relative="1" as="geometry">
            <mxPoint x="168" y="581" as="sourcePoint" />
            <mxPoint x="238" y="581" as="targetPoint" />
          </mxGeometry>
        </mxCell>
        <mxCell id="uqjpLZ4vGiqpJtfUBh_o-50" value="" style="group" vertex="1" connectable="0" parent="1">
          <mxGeometry x="352" y="348" width="565.5964367816092" height="130.0045454545455" as="geometry" />
        </mxCell>
        <mxCell id="uqjpLZ4vGiqpJtfUBh_o-19" value="" style="verticalLabelPosition=bottom;verticalAlign=top;html=1;shape=mxgraph.basic.polygon;polyCoords=[[0.25,0],[0.75,0],[1,0.25],[1,0.75],[0.75,1],[0.25,1],[0,0.75],[0,0.25]];polyline=0;strokeWidth=2;strokeColor=#616161;" vertex="1" parent="uqjpLZ4vGiqpJtfUBh_o-50">
          <mxGeometry x="472.8734482758621" y="24.546363636363623" width="55.91954022988506" height="50.909090909090914" as="geometry" />
        </mxCell>
        <mxCell id="uqjpLZ4vGiqpJtfUBh_o-20" value="" style="triangle;whiteSpace=wrap;html=1;strokeWidth=2;strokeColor=#616161;" vertex="1" parent="uqjpLZ4vGiqpJtfUBh_o-50">
          <mxGeometry x="388.9941379310345" y="20.909999999999997" width="47.93103448275862" height="58.18181818181819" as="geometry" />
        </mxCell>
        <mxCell id="uqjpLZ4vGiqpJtfUBh_o-23" style="edgeStyle=orthogonalEdgeStyle;rounded=0;orthogonalLoop=1;jettySize=auto;html=1;entryX=0;entryY=0.5;entryDx=0;entryDy=0;dashed=1;dashPattern=1 1;strokeWidth=2;strokeColor=#616161;exitX=1;exitY=0.5;exitDx=0;exitDy=0;" edge="1" parent="uqjpLZ4vGiqpJtfUBh_o-50" source="uqjpLZ4vGiqpJtfUBh_o-33" target="uqjpLZ4vGiqpJtfUBh_o-20">
          <mxGeometry relative="1" as="geometry">
            <mxPoint x="333.004579892729" y="50.20999999999995" as="sourcePoint" />
          </mxGeometry>
        </mxCell>
        <mxCell id="uqjpLZ4vGiqpJtfUBh_o-24" style="edgeStyle=orthogonalEdgeStyle;rounded=0;orthogonalLoop=1;jettySize=auto;html=1;dashed=1;dashPattern=1 1;strokeWidth=2;strokeColor=#616161;" edge="1" parent="uqjpLZ4vGiqpJtfUBh_o-50" source="uqjpLZ4vGiqpJtfUBh_o-20" target="uqjpLZ4vGiqpJtfUBh_o-19">
          <mxGeometry relative="1" as="geometry">
            <mxPoint x="488.850459770115" y="44.80090909090907" as="targetPoint" />
          </mxGeometry>
        </mxCell>
        <mxCell id="uqjpLZ4vGiqpJtfUBh_o-25" value="&lt;font face=&quot;Times New Roman&quot; style=&quot;font-size: 16px;&quot;&gt;&lt;b style=&quot;font-size: 16px;&quot;&gt;Deployment&lt;/b&gt;&lt;/font&gt;" style="text;html=1;align=center;verticalAlign=middle;resizable=0;points=[];autosize=1;strokeColor=none;fillColor=none;fontSize=16;fontColor=#616161;" vertex="1" parent="uqjpLZ4vGiqpJtfUBh_o-50">
          <mxGeometry x="133.0002013422819" y="100.00454545454551" width="110" height="30" as="geometry" />
        </mxCell>
        <mxCell id="uqjpLZ4vGiqpJtfUBh_o-26" value="&lt;font face=&quot;Times New Roman&quot; style=&quot;font-size: 16px;&quot;&gt;&lt;b style=&quot;font-size: 16px;&quot;&gt;Service&lt;/b&gt;&lt;/font&gt;" style="text;html=1;align=center;verticalAlign=middle;resizable=0;points=[];autosize=1;strokeColor=none;fillColor=none;fontSize=16;fontColor=#616161;" vertex="1" parent="uqjpLZ4vGiqpJtfUBh_o-50">
          <mxGeometry x="372.92678160919536" y="100.00454545454551" width="70" height="30" as="geometry" />
        </mxCell>
        <mxCell id="uqjpLZ4vGiqpJtfUBh_o-27" value="&lt;font face=&quot;Times New Roman&quot; style=&quot;font-size: 16px;&quot;&gt;&lt;b style=&quot;font-size: 16px;&quot;&gt;VirtualService&lt;/b&gt;&lt;/font&gt;" style="text;html=1;align=center;verticalAlign=middle;resizable=0;points=[];autosize=1;strokeColor=none;fillColor=none;fontSize=16;fontColor=#616161;" vertex="1" parent="uqjpLZ4vGiqpJtfUBh_o-50">
          <mxGeometry x="445.5964367816092" y="100.00181818181824" width="120" height="30" as="geometry" />
        </mxCell>
        <mxCell id="uqjpLZ4vGiqpJtfUBh_o-49" value="" style="group" vertex="1" connectable="0" parent="uqjpLZ4vGiqpJtfUBh_o-50">
          <mxGeometry width="333" height="100" as="geometry" />
        </mxCell>
        <mxCell id="uqjpLZ4vGiqpJtfUBh_o-33" value="" style="rounded=1;whiteSpace=wrap;html=1;strokeWidth=2;strokeColor=#616161;" vertex="1" parent="uqjpLZ4vGiqpJtfUBh_o-49">
          <mxGeometry x="43" width="290" height="100" as="geometry" />
        </mxCell>
        <mxCell id="uqjpLZ4vGiqpJtfUBh_o-36" value="" style="ellipse;whiteSpace=wrap;html=1;aspect=fixed;strokeWidth=2;strokeColor=#616161;" vertex="1" parent="uqjpLZ4vGiqpJtfUBh_o-49">
          <mxGeometry x="153" y="30" width="45" height="45" as="geometry" />
        </mxCell>
        <mxCell id="uqjpLZ4vGiqpJtfUBh_o-41" style="edgeStyle=orthogonalEdgeStyle;rounded=0;orthogonalLoop=1;jettySize=auto;html=1;strokeWidth=2;startArrow=classic;startFill=1;strokeColor=#616161;" edge="1" parent="uqjpLZ4vGiqpJtfUBh_o-49" source="uqjpLZ4vGiqpJtfUBh_o-37" target="uqjpLZ4vGiqpJtfUBh_o-36">
          <mxGeometry relative="1" as="geometry" />
        </mxCell>
        <mxCell id="uqjpLZ4vGiqpJtfUBh_o-37" value="" style="shape=parallelogram;perimeter=parallelogramPerimeter;whiteSpace=wrap;html=1;fixedSize=1;strokeWidth=2;strokeColor=#616161;" vertex="1" parent="uqjpLZ4vGiqpJtfUBh_o-49">
          <mxGeometry y="30" width="114" height="45" as="geometry" />
        </mxCell>
        <mxCell id="uqjpLZ4vGiqpJtfUBh_o-38" value="&lt;b&gt;&lt;font style=&quot;font-size: 14px;&quot; color=&quot;#616161&quot; face=&quot;Times New Roman&quot;&gt;Container&amp;nbsp;&lt;/font&gt;&lt;/b&gt;&lt;div&gt;&lt;b&gt;&lt;font size=&quot;3&quot; color=&quot;#616161&quot; face=&quot;Times New Roman&quot;&gt;Engine&lt;/font&gt;&lt;/b&gt;&lt;/div&gt;" style="text;html=1;align=center;verticalAlign=middle;resizable=0;points=[];autosize=1;strokeColor=none;fillColor=none;" vertex="1" parent="uqjpLZ4vGiqpJtfUBh_o-49">
          <mxGeometry x="10" y="27.5" width="90" height="50" as="geometry" />
        </mxCell>
        <mxCell id="uqjpLZ4vGiqpJtfUBh_o-40" value="" style="ellipse;whiteSpace=wrap;html=1;aspect=fixed;strokeWidth=2;strokeColor=#616161;" vertex="1" parent="uqjpLZ4vGiqpJtfUBh_o-49">
          <mxGeometry x="213" y="52" width="45" height="45" as="geometry" />
        </mxCell>
        <mxCell id="uqjpLZ4vGiqpJtfUBh_o-43" value="" style="ellipse;whiteSpace=wrap;html=1;aspect=fixed;strokeWidth=2;strokeColor=#616161;" vertex="1" parent="uqjpLZ4vGiqpJtfUBh_o-49">
          <mxGeometry x="273" y="30" width="45" height="45" as="geometry" />
        </mxCell>
        <mxCell id="uqjpLZ4vGiqpJtfUBh_o-44" value="" style="ellipse;whiteSpace=wrap;html=1;aspect=fixed;strokeWidth=2;strokeColor=#616161;" vertex="1" parent="uqjpLZ4vGiqpJtfUBh_o-49">
          <mxGeometry x="211.21000000000004" width="45" height="45" as="geometry" />
        </mxCell>
        <mxCell id="uqjpLZ4vGiqpJtfUBh_o-45" value="" style="endArrow=classic;html=1;rounded=0;entryX=0;entryY=0.5;entryDx=0;entryDy=0;exitX=1;exitY=0.5;exitDx=0;exitDy=0;strokeWidth=2;strokeColor=#616161;" edge="1" parent="uqjpLZ4vGiqpJtfUBh_o-49" source="uqjpLZ4vGiqpJtfUBh_o-36" target="uqjpLZ4vGiqpJtfUBh_o-44">
          <mxGeometry width="50" height="50" relative="1" as="geometry">
            <mxPoint x="203" y="50" as="sourcePoint" />
            <mxPoint x="163" y="180" as="targetPoint" />
          </mxGeometry>
        </mxCell>
        <mxCell id="uqjpLZ4vGiqpJtfUBh_o-46" value="" style="endArrow=classic;html=1;rounded=0;entryX=0;entryY=0.5;entryDx=0;entryDy=0;exitX=1;exitY=0.5;exitDx=0;exitDy=0;strokeWidth=2;strokeColor=#616161;" edge="1" parent="uqjpLZ4vGiqpJtfUBh_o-49" source="uqjpLZ4vGiqpJtfUBh_o-36" target="uqjpLZ4vGiqpJtfUBh_o-40">
          <mxGeometry width="50" height="50" relative="1" as="geometry">
            <mxPoint x="203" y="60" as="sourcePoint" />
            <mxPoint x="221" y="33" as="targetPoint" />
          </mxGeometry>
        </mxCell>
        <mxCell id="uqjpLZ4vGiqpJtfUBh_o-47" value="" style="endArrow=classic;html=1;rounded=0;entryX=0;entryY=0.5;entryDx=0;entryDy=0;exitX=1;exitY=0.5;exitDx=0;exitDy=0;strokeWidth=2;strokeColor=#616161;" edge="1" parent="uqjpLZ4vGiqpJtfUBh_o-49" source="uqjpLZ4vGiqpJtfUBh_o-44" target="uqjpLZ4vGiqpJtfUBh_o-43">
          <mxGeometry width="50" height="50" relative="1" as="geometry">
            <mxPoint x="208" y="63" as="sourcePoint" />
            <mxPoint x="221" y="33" as="targetPoint" />
          </mxGeometry>
        </mxCell>
        <mxCell id="uqjpLZ4vGiqpJtfUBh_o-48" value="" style="endArrow=classic;html=1;rounded=0;entryX=0;entryY=0.5;entryDx=0;entryDy=0;exitX=1;exitY=0.5;exitDx=0;exitDy=0;strokeWidth=2;strokeColor=#616161;" edge="1" parent="uqjpLZ4vGiqpJtfUBh_o-49" source="uqjpLZ4vGiqpJtfUBh_o-40" target="uqjpLZ4vGiqpJtfUBh_o-43">
          <mxGeometry width="50" height="50" relative="1" as="geometry">
            <mxPoint x="266" y="33" as="sourcePoint" />
            <mxPoint x="283" y="63" as="targetPoint" />
          </mxGeometry>
        </mxCell>
        <mxCell id="uqjpLZ4vGiqpJtfUBh_o-51" value="&lt;b style=&quot;font-size: 24px;&quot;&gt;&lt;font style=&quot;font-size: 24px;&quot; face=&quot;Times New Roman&quot;&gt;Kubernetes Cluster&lt;/font&gt;&lt;/b&gt;" style="text;html=1;align=center;verticalAlign=middle;resizable=0;points=[];autosize=1;strokeColor=none;fillColor=none;fontSize=24;" vertex="1" parent="1">
          <mxGeometry x="710" y="619" width="220" height="40" as="geometry" />
        </mxCell>
        <mxCell id="uqjpLZ4vGiqpJtfUBh_o-53" value="" style="verticalLabelPosition=bottom;verticalAlign=top;html=1;shape=mxgraph.basic.tick;fillColor=#CC0000;strokeColor=none;shadow=0;rotation=0;" vertex="1" parent="1">
          <mxGeometry x="290" y="476.5" width="65" height="64" as="geometry" />
        </mxCell>
        <mxCell id="uqjpLZ4vGiqpJtfUBh_o-54" value="" style="verticalLabelPosition=bottom;verticalAlign=top;html=1;shape=mxgraph.basic.tick;fillColor=#CC0000;strokeColor=none;shadow=0;rotation=0;" vertex="1" parent="1">
          <mxGeometry x="330" y="340" width="65" height="64" as="geometry" />
        </mxCell>
      </root>
    </mxGraphModel>
  </diagram>
</mxfile>
